<svg width="120" height="120" viewBox="0 0 120 120" fill="none" xmlns="http://www.w3.org/2000/svg">
<path d="M72.4794 60.6532C76.3612 59.0242 79.1454 56.4168 80.8318 52.8363C82.5181 49.2557 83.3613 44.6386 83.3613 38.9954C83.3613 34.4735 82.7356 30.6444 81.484 27.5134C80.2325 24.3824 78.3446 21.9019 75.8256 20.0773C73.3013 18.2526 70.3369 16.9463 66.927 16.1688C63.5171 15.3914 59.4337 15 54.6821 15H34V105H50.4396V63.9058H57.7314L68.5073 105H85L72.4794 60.6532ZM64.7792 50.34C62.7269 52.4026 59.2746 53.4339 54.4117 53.4339H50.4396V26.2916H55.3927C60.1443 26.2916 63.411 27.3335 65.1929 29.4121C66.9694 31.4959 67.8604 34.9389 67.8604 39.7517C67.8604 44.5646 66.8369 48.272 64.7845 50.3347L64.7792 50.34Z" fill="#329FA7"/>
</svg>
