<svg width="24" height="24" viewBox="0 0 24 24" fill="none" xmlns="http://www.w3.org/2000/svg">
<g clip-path="url(#clip0_2505_3712)">
<path d="M11.4068 21.2044H3.13248C2.81878 21.2044 2.52867 21.0999 2.31532 20.91C2.2083 20.8148 2.02889 20.6111 2.02889 20.3173V5.61919C2.02889 5.32557 2.2083 5.12185 2.31532 5.02668C2.5287 4.83672 2.81878 4.73223 3.13248 4.73223H7.83564V2.70337H2.84479C2.10372 2.70337 1.40238 2.96456 0.869837 3.43848C0.308895 3.93794 0 4.61022 0 5.33149V20.605C0 21.3265 0.308895 21.9987 0.869837 22.498C1.40238 22.9721 2.10372 23.2331 2.84461 23.2331H12.7783C12.2354 22.7298 11.7714 21.8549 11.4068 21.2044Z" fill="#329FA7"/>
<path d="M20.5302 5.02675C20.6372 5.12195 20.8166 5.32564 20.8166 5.61926V11.1421C21.4455 11.3877 22.3184 11.7203 22.8455 12.1251V5.33171C22.8455 4.61044 22.5364 3.93804 21.9755 3.43872C21.4431 2.96464 20.7418 2.70361 20.0007 2.70361H14.801V4.7323H19.713C20.0267 4.7323 20.3169 4.83682 20.5302 5.02675Z" fill="#329FA7"/>
<path d="M18.0573 8.51501L16.5762 7.03397L12.3645 11.2451V1.07167C12.3645 0.638002 12.0127 0.286011 11.579 0.286011H11.0552C10.6216 0.286011 10.2696 0.638002 10.2696 1.07167V10.7988L6.51368 7.04283L4.98071 8.57583L11.3553 14.9503" fill="#329FA7"/>
<path d="M18.3822 12.494C15.2837 12.494 12.7722 15.005 12.7722 18.104C12.7722 21.2022 15.2837 23.714 18.3822 23.714C21.4804 23.714 23.9922 21.2022 23.9922 18.104C23.9922 15.005 21.4804 12.494 18.3822 12.494ZM21.878 16.7266L17.9522 20.5123C17.8997 20.5648 17.8412 20.6054 17.7782 20.636C17.5318 20.8114 17.1866 20.7894 16.9656 20.5684L15.2796 18.882C15.0331 18.6355 15.0331 18.2359 15.2796 17.9899C15.5261 17.7424 15.9256 17.7424 16.1721 17.9899L17.4376 19.255L20.9854 15.8345C21.2315 15.5875 21.6314 15.5875 21.878 15.8345C22.1244 16.0806 22.1244 16.4805 21.878 16.7266Z" fill="#329FA7"/>
</g>
<defs>
<clipPath id="clip0_2505_3712">
<rect width="24" height="24" fill="white"/>
</clipPath>
</defs>
</svg>
