<svg width="120" height="120" viewBox="0 0 120 120" fill="none" xmlns="http://www.w3.org/2000/svg">
<path d="M99.4683 94.4021C107.788 84.8794 112.333 72.8141 112.333 60.0493C112.333 46.0799 106.893 32.9464 97.0151 23.0685C87.2891 13.3424 74.406 7.92288 60.6773 7.75847C60.4517 7.6882 59.4714 7.68904 59.2444 7.76027C45.5706 7.96149 32.7451 13.3771 23.0537 23.0685C13.3422 32.7801 7.9243 45.639 7.74442 59.3447C7.69418 59.538 7.69322 60.3528 7.74191 60.5432C7.86878 74.3277 13.2925 87.2688 23.0537 97.03C32.9317 106.908 46.065 112.348 60.0345 112.348C74.0038 112.348 87.1373 106.908 97.0153 97.03C97.7348 96.3105 98.4279 95.5717 99.0999 94.8185C99.1594 94.7654 99.2173 94.7097 99.2724 94.6496C99.3447 94.5709 99.4085 94.4874 99.4683 94.4021ZM12.5903 62.348H34.5632C34.7181 70.0447 35.6476 77.2618 37.2005 83.6893C29.9712 85.6448 25.3858 88.186 23.0119 89.7721C16.9102 82.187 13.086 72.6972 12.5903 62.348ZM22.9537 30.3985C25.3081 31.9872 29.8962 34.5542 37.1733 36.5228C35.6501 42.8659 34.7326 49.9733 34.5666 57.55H12.5996C13.1329 47.3114 16.9252 37.9225 22.9537 30.3985ZM107.469 57.5499H85.5022C85.3364 49.976 84.4194 42.8709 82.8972 36.5295C90.1576 34.5732 94.7608 32.0243 97.1433 30.4333C103.156 37.9515 106.937 47.3272 107.469 57.5499ZM80.7033 57.5499H62.3622V39.2641C68.4805 39.1358 73.7416 38.5078 78.2145 37.6195C79.6864 43.7293 80.5402 50.4949 80.7033 57.5499ZM62.3622 34.4658V12.8802C66.6795 14.0988 70.8911 18.6465 74.1896 25.7727C75.2221 28.0034 76.1402 30.4182 76.9393 32.9822C72.8346 33.7758 67.9983 34.3424 62.3622 34.4658ZM57.5642 12.9218V34.4615C51.9972 34.3295 47.2073 33.7582 43.136 32.9612C43.9337 30.405 44.8497 27.9971 45.8793 25.7724C49.1417 18.7248 53.2969 14.1994 57.5642 12.9218ZM57.5642 39.2617V57.5499H39.3655C39.5286 50.4937 40.3827 43.727 41.8551 37.6164C46.2889 38.4995 51.5013 39.1266 57.5642 39.2617ZM39.3613 62.348H57.5642V80.9419C51.5162 81.0818 46.3118 81.711 41.8819 82.5946C40.379 76.3969 39.5138 69.5198 39.3613 62.348ZM57.5642 85.742V107.177C53.2967 105.899 49.1417 101.374 45.8794 94.326C44.8623 92.1285 43.9564 89.7517 43.1657 87.2301C47.225 86.4419 52.0035 85.8765 57.5642 85.742ZM62.3622 107.218V85.7345C67.976 85.8547 72.804 86.4215 76.9072 87.2177C76.1155 89.7438 75.2083 92.1247 74.1896 94.3259C70.8911 101.452 66.6795 106 62.3622 107.218ZM62.3622 80.9359V62.348H80.7075C80.5553 69.5077 79.6926 76.3736 78.1944 82.5632C73.7279 81.6804 68.4738 81.059 62.3622 80.9359ZM85.5058 62.348H107.479C106.984 72.6767 103.174 82.1496 97.0934 89.7271C94.6947 88.1253 90.1049 85.5905 82.8782 83.6488C84.4251 77.2314 85.3511 70.0287 85.5058 62.348ZM93.9269 26.8049C91.7789 28.1608 87.7969 30.245 81.6388 31.9018C79.3776 24.5124 76.2353 18.4248 72.4909 14.2093C80.7411 16.4535 88.1043 20.8699 93.9269 26.8049ZM47.5779 14.2093C43.839 18.4186 40.7001 24.4947 38.4398 31.8697C32.2987 30.2008 28.3183 28.1081 26.1841 26.7617C32 20.8484 39.3478 16.4481 47.5779 14.2093ZM26.2392 93.3932C28.382 92.0414 32.3445 89.9678 38.4657 88.3148C40.7241 95.6513 43.8535 101.696 47.5779 105.889C39.3738 103.657 32.0464 99.2783 26.2392 93.3932ZM72.4909 105.889C76.2176 101.694 79.3485 95.644 81.6073 88.3015C87.6993 89.9449 91.6821 92.0083 93.8573 93.3649C88.0457 99.2641 80.7081 103.654 72.4909 105.889Z" fill="#23929C"/>
</svg>
