<svg width="134" height="27" viewBox="0 0 134 27" fill="none" xmlns="http://www.w3.org/2000/svg">
<path fill-rule="evenodd" clip-rule="evenodd" d="M6.40446 0.412043H0.23877V26.5613H4.07969V16.6781H6.40446C8.12277 16.6781 9.43676 16.0604 10.6497 14.825C11.8626 13.5896 12.4691 12.1483 12.4691 10.3982V6.79493C12.4691 5.04479 11.9637 3.50054 10.8518 2.36809C9.74 1.13269 8.22384 0.412043 6.40446 0.412043ZM8.62815 10.6041C8.62815 11.2218 8.426 11.7365 8.02169 12.2513C7.61738 12.6631 7.112 12.869 6.50554 12.869H4.07969V4.53004H6.40446C7.112 4.53004 7.61738 4.73594 8.02169 5.14774C8.426 5.55953 8.62815 6.07428 8.62815 6.79493V10.6041ZM23.1832 0.412043H19.4434L14.996 26.5613H19.0391L19.9488 20.5902H23.9918L24.9015 26.5613H28.9446C28.9446 26.5613 26.0134 7.92738 25.0026 2.16219C24.6994 0.412043 23.1832 0.412043 23.1832 0.412043ZM20.6563 16.7811L22.0714 6.48608L23.4864 16.7811H20.6563ZM35.6157 2.16219C35.6157 0.412043 33.6952 0.412043 33.6952 0.412043H31.6737V26.5613H42.1857V22.6492H35.6157C35.6157 22.6492 35.6157 7.51558 35.6157 2.16219ZM57.2461 2.16219C56.3364 6.79493 54.1127 19.2519 54.1127 19.2519C54.1127 19.2519 51.6869 6.89788 50.7772 2.16219C50.474 0.412043 48.8567 0.412043 48.8567 0.412043H44.8137V26.5613H48.6546V10.1923L52.3944 26.5613H55.5278L58.8633 10.1923V26.5613H62.9064V0.412043H59.1666C59.0655 0.412043 57.5494 0.412043 57.2461 2.16219ZM77.4615 16.3693C76.9561 15.4427 76.2486 14.5162 75.2378 13.4867C74.9346 13.1778 74.3281 12.6631 73.4184 11.8395C72.6098 11.2218 72.1044 10.6041 71.7001 10.1923C70.6893 8.95688 70.184 7.72148 70.184 6.58903C70.184 5.86838 70.285 5.14774 70.5883 4.63299C70.9926 4.01529 71.498 3.70644 72.2055 3.70644C72.913 3.70644 73.4184 3.91234 73.7216 4.32414C74.227 4.94184 74.4292 5.76543 74.6313 6.79493L78.3712 6.17723C78.2701 5.04479 77.9669 4.01529 77.4615 3.08874C76.9561 2.16219 76.3496 1.54449 75.6421 1.02974C74.6313 0.412043 73.4184 0.000244141 72.1044 0.000244141C70.6893 0.000244141 69.4764 0.412043 68.4657 1.13269C66.8484 2.36809 66.1409 4.11824 66.1409 6.58903C66.1409 7.92738 66.4441 9.16278 67.0506 10.2952C67.556 11.3247 68.4657 12.4572 69.7797 13.6926C71.2958 15.1339 72.4076 16.2663 73.2163 16.987C74.227 18.0165 74.6313 19.1489 74.6313 20.1784C74.6313 20.8991 74.5303 21.5168 74.227 21.9286C73.7216 22.7522 73.0141 23.164 72.2055 23.164C71.599 23.164 71.0937 22.9581 70.5883 22.4433C69.9818 21.7227 69.5775 20.6932 69.3753 19.1489L65.6355 19.3548C65.7366 20.7961 66.0398 22.0315 66.5452 23.061C67.0506 24.0905 67.657 25.017 68.5667 25.6348C69.5775 26.3554 70.7904 26.7672 72.3066 26.7672C73.1152 26.7672 73.8227 26.6642 74.4292 26.4583C75.541 26.0466 76.4507 25.4289 77.0572 24.6053C77.9669 23.2669 78.4723 21.7227 78.4723 19.9725C78.4723 19.2519 78.2701 18.4283 77.8658 17.5017C77.8658 17.1929 77.6637 16.7811 77.4615 16.3693ZM91.8144 0.412043H89.6918V11.5306H85.1433C85.1433 11.5306 85.1433 5.25068 85.1433 2.16219C85.1433 0.412043 83.2229 0.412043 83.2229 0.412043H81.3024V26.5613H85.1433V15.5457H89.7929V26.5613H93.8359C93.8359 26.5613 93.8359 8.03033 93.8359 2.16219C93.7349 0.412043 91.8144 0.412043 91.8144 0.412043ZM105.46 0.412043H96.2618V26.5613H107.38V22.5463H100.204V15.4427H105.359V11.5306H100.204V4.42709H107.38C107.38 4.42709 107.38 3.29464 107.38 2.16219C107.38 0.309094 105.46 0.412043 105.46 0.412043ZM113.849 2.16219C113.849 0.412043 111.929 0.412043 111.929 0.412043H109.907V26.5613H120.52V22.6492H113.849C113.849 22.6492 113.849 7.41263 113.849 2.16219ZM127.09 22.6492C127.09 22.6492 127.09 7.41263 127.09 2.16219C127.09 0.412043 125.17 0.412043 125.17 0.412043H123.148V26.5613H133.761V22.6492H127.09Z" fill="white"/>
</svg>
