<svg width="24" height="24" viewBox="0 0 24 24" fill="none" xmlns="http://www.w3.org/2000/svg">
<path d="M18.1662 7.08144H4.83383C4.61269 7.08144 4.4006 7.17233 4.24422 7.33411C4.08785 7.4959 4 7.71532 4 7.94412V19.581C4 20.2947 4.56089 20.875 5.25075 20.875H17.7493C18.4391 20.875 19 20.2947 19 19.581V7.94412C19 7.46934 18.6251 7.08144 18.1662 7.08144ZM15.2567 14.4173L11.9244 17.8649C11.8074 17.986 11.6545 18.048 11.5015 18.048H11.4955C11.4715 18.048 11.4505 18.0449 11.4265 18.0418C11.4115 18.0387 11.3965 18.0387 11.3815 18.0387C11.2525 18.0139 11.1386 17.9456 11.0516 17.8463L7.74325 14.4173C7.5093 14.1753 7.5093 13.7812 7.74325 13.5391C7.9772 13.2971 8.35813 13.2971 8.59208 13.5391L10.8986 15.9255V10.5322C10.8986 10.1908 11.1686 9.91153 11.4985 9.91153C11.8284 9.91153 12.0984 10.1908 12.0984 10.5322V15.9348L14.4109 13.5422C14.6449 13.3002 15.0258 13.3002 15.2597 13.5422C15.4937 13.7843 15.4907 14.1753 15.2567 14.4173ZM18.751 6.82388L16.6395 4H6.36653L4.24895 6.82388" fill="#020202"/>
</svg>
