<svg width="250" height="105" viewBox="0 0 250 105" fill="none" xmlns="http://www.w3.org/2000/svg">
<path fill-rule="evenodd" clip-rule="evenodd" d="M83.3565 22.4947C82.9519 23.2107 82.2937 23.7315 81.5244 23.9446C80.7551 24.1577 79.9363 24.046 79.2453 23.6335C79.1729 23.5894 79.1004 23.541 79.0321 23.4906C74.8792 21.0772 70.2005 19.8239 65.4483 19.8519C60.6962 19.8799 56.0313 21.1882 51.9047 23.6503C51.7371 23.7483 51.5722 23.8492 51.4099 23.9528C54.6985 24.5647 57.7237 26.2292 60.0669 28.7159C61.6964 30.4362 62.9593 32.4969 63.7729 34.7628C64.5864 37.0287 64.9322 39.4487 64.7876 41.8641C64.8013 41.9826 64.808 42.1019 64.8077 42.2212C64.8077 43.0515 64.4919 43.8478 63.9299 44.4349C63.3678 45.0219 62.6056 45.3518 61.8107 45.3518C61.0159 45.3518 60.2536 45.0219 59.6916 44.4349C59.1295 43.8478 58.8138 43.0515 58.8138 42.2212C58.824 41.9336 58.8489 41.6468 58.8882 41.3619C58.9928 38.4436 58.0595 35.3719 55.9295 33.1469C54.5157 31.6712 52.725 30.652 50.7714 30.2112C48.8178 29.7704 46.784 29.9267 44.9132 30.6614V98.6169H57.3636C58.159 98.6169 58.9218 98.947 59.4842 99.5345C60.0466 100.122 60.3625 100.919 60.3625 101.75C60.3625 102.58 60.0466 103.377 59.4842 103.965C58.9218 104.552 58.159 104.882 57.3636 104.882H26.6158C25.8204 104.882 25.0577 104.552 24.4952 103.965C23.9328 103.377 23.6169 102.58 23.6169 101.75C23.6169 100.919 23.9328 100.122 24.4952 99.5345C25.0577 98.947 25.8204 98.6169 26.6158 98.6169H38.9153V30.6404C37.0394 29.8961 34.9976 29.7334 33.0352 30.1717C31.0729 30.61 29.2734 31.6307 27.8528 33.1112C25.7228 35.3362 24.7875 38.4079 24.8921 41.3262C24.9324 41.6117 24.9573 41.8993 24.9665 42.1876C24.9665 43.0185 24.6505 43.8153 24.0881 44.4027C23.5257 44.9902 22.7629 45.3203 21.9675 45.3203C21.1722 45.3203 20.4094 44.9902 19.847 44.4027C19.2846 43.8153 18.9686 43.0185 18.9686 42.1876C18.9685 42.0676 18.9745 41.9477 18.9867 41.8284C18.8428 39.4126 19.1896 36.9923 20.0042 34.7263C20.8188 32.4604 22.0828 30.3999 23.7134 28.6802C26.0608 26.1952 29.0894 24.5337 32.3804 23.9255C32.2175 23.8247 32.0525 23.7154 31.8856 23.623C27.7545 21.16 23.0852 19.8514 18.3287 19.8238C13.5721 19.7962 8.88914 21.0505 4.73214 23.4654C4.66375 23.5137 4.59134 23.5621 4.51894 23.6062C3.82688 24.0202 3.00658 24.1328 2.23562 23.9197C1.46466 23.7065 0.805077 23.1848 0.399656 22.4674C0.202887 22.1123 0.0754848 21.72 0.024819 21.3131C-0.0258468 20.9063 0.00123033 20.493 0.104484 20.0971C0.207737 19.7012 0.385116 19.3307 0.626359 19.0069C0.867601 18.6831 1.16792 18.4125 1.50993 18.2108C1.56625 18.1771 1.62257 18.1456 1.6809 18.1162C7.44492 14.7184 14.04 13.1708 20.6414 13.6671C27.2429 14.1633 33.5578 16.6814 38.7967 20.9064C38.1626 17.3718 36.5244 14.1185 34.0953 11.5702C31.6662 9.02194 28.5587 7.29678 25.1777 6.6194H25.1898C24.3927 6.61441 23.63 6.28017 23.0681 5.68968C22.5062 5.09919 22.1908 4.30044 22.1908 3.46787C22.1867 3.05555 22.2618 2.64656 22.4117 2.26508C22.5615 1.8836 22.783 1.53738 23.0632 1.24689C23.3434 0.956401 23.6764 0.727539 24.0427 0.57384C24.409 0.420141 24.8011 0.344724 25.1958 0.352049C25.4427 0.35833 25.6882 0.392853 25.9279 0.454999C29.2245 1.04621 32.3594 2.376 35.1173 4.35298C37.8751 6.32995 40.1905 8.90723 41.9042 11.9077C43.6172 8.91515 45.9292 6.3448 48.6819 4.37275C51.4345 2.40071 54.5628 1.07358 57.8524 0.482313C58.0918 0.418863 58.3375 0.384321 58.5845 0.379363C58.978 0.37206 59.3689 0.447104 59.7341 0.600073C60.0994 0.753042 60.4317 0.98084 60.7113 1.27004C60.991 1.55924 61.2124 1.904 61.3626 2.28399C61.5127 2.66398 61.5885 3.07151 61.5855 3.48257C61.5855 4.31442 61.2706 5.11255 60.7096 5.70292C60.1486 6.29328 59.3869 6.62801 58.5905 6.63411H58.6006C55.2213 7.31226 52.116 9.03798 49.6893 11.5864C47.2625 14.1348 45.627 17.3876 44.9957 20.9211C50.229 16.6972 56.5389 14.18 63.1354 13.6848C69.7319 13.1896 76.3216 14.7384 82.0793 18.1372C82.1356 18.1666 82.1939 18.1981 82.2502 18.2318C82.5925 18.4341 82.893 18.7053 83.1342 19.0298C83.3754 19.3542 83.5526 19.7255 83.6555 20.122C83.7584 20.5185 83.7849 20.9324 83.7336 21.3397C83.6823 21.7469 83.5541 22.1396 83.3565 22.4947Z" fill="#23929C"/>
<path fill-rule="evenodd" clip-rule="evenodd" d="M93.8842 45.1955H86.3315V77.2272H91.0365V65.1207H93.8842C95.9891 65.1207 97.5987 64.364 99.0845 62.8507C100.57 61.3374 101.313 59.5719 101.313 57.428V53.0142C101.313 50.8704 100.694 48.9787 99.3321 47.5915C97.9701 46.0782 96.1129 45.1955 93.8842 45.1955ZM96.6082 57.6803C96.6082 58.4369 96.3605 59.0675 95.8653 59.698C95.37 60.2024 94.7509 60.4547 94.0081 60.4547H91.0365V50.2398H93.8842C94.7509 50.2398 95.37 50.4921 95.8653 50.9965C96.3605 51.5009 96.6082 52.1315 96.6082 53.0142V57.6803ZM114.437 45.1955H109.856L104.408 77.2272H109.361L110.475 69.9128H115.428L116.542 77.2272H121.495C121.495 77.2272 117.904 54.4014 116.666 47.3393C116.295 45.1955 114.437 45.1955 114.437 45.1955ZM111.342 65.2468L113.076 52.6359L114.809 65.2468H111.342ZM129.667 47.3393C129.667 45.1955 127.314 45.1955 127.314 45.1955H124.838V77.2272H137.715V72.435H129.667C129.667 72.435 129.667 53.897 129.667 47.3393ZM156.163 47.3393C155.049 53.0142 152.325 68.2734 152.325 68.2734C152.325 68.2734 149.353 53.1403 148.239 47.3393C147.867 45.1955 145.886 45.1955 145.886 45.1955H140.934V77.2272H145.639V57.1758L150.22 77.2272H154.058L158.144 57.1758V77.2272H163.097V45.1955H158.515C158.392 45.1955 156.534 45.1955 156.163 47.3393ZM180.926 64.7424C180.307 63.6074 179.44 62.4724 178.202 61.2113C177.831 60.833 177.088 60.2024 175.973 59.1936C174.983 58.4369 174.364 57.6803 173.868 57.1758C172.63 55.6625 172.011 54.1492 172.011 52.762C172.011 51.8793 172.135 50.9965 172.507 50.3659C173.002 49.6093 173.621 49.231 174.488 49.231C175.354 49.231 175.973 49.4832 176.345 49.9876C176.964 50.7443 177.211 51.7531 177.459 53.0142L182.04 52.2576C181.916 50.8704 181.545 49.6093 180.926 48.4743C180.307 47.3393 179.564 46.5827 178.697 45.9521C177.459 45.1955 175.973 44.691 174.364 44.691C172.63 44.691 171.145 45.1955 169.906 46.0782C167.925 47.5915 167.059 49.7354 167.059 52.762C167.059 54.4014 167.43 55.9147 168.173 57.3019C168.792 58.563 169.906 59.9502 171.516 61.4635C173.373 63.2291 174.735 64.6163 175.726 65.499C176.964 66.7601 177.459 68.1473 177.459 69.4084C177.459 70.2912 177.335 71.0478 176.964 71.5522C176.345 72.5611 175.478 73.0656 174.488 73.0656C173.745 73.0656 173.126 72.8133 172.507 72.1828C171.764 71.3 171.268 70.0389 171.021 68.1473L166.44 68.3995C166.563 70.1651 166.935 71.6784 167.554 72.9394C168.173 74.2005 168.916 75.3355 170.03 76.0922C171.268 76.9749 172.754 77.4794 174.611 77.4794C175.602 77.4794 176.469 77.3533 177.212 77.101C178.573 76.5966 179.688 75.84 180.431 74.8311C181.545 73.1917 182.164 71.3 182.164 69.1562C182.164 68.2734 181.916 67.2645 181.421 66.1296C181.421 65.7512 181.174 65.2468 180.926 64.7424ZM198.508 45.1955H195.908V58.8152H190.336C190.336 58.8152 190.336 51.1226 190.336 47.3393C190.336 45.1955 187.983 45.1955 187.983 45.1955H185.631V77.2272H190.336V63.7335H196.031V77.2272H200.984C200.984 77.2272 200.984 54.5275 200.984 47.3393C200.86 45.1955 198.508 45.1955 198.508 45.1955ZM215.223 45.1955H203.955V77.2272H217.575V72.3089H208.784V63.6074H215.099V58.8152H208.784V50.1137H217.575C217.575 50.1137 217.575 48.7265 217.575 47.3393C217.575 45.0694 215.223 45.1955 215.223 45.1955ZM225.499 47.3393C225.499 45.1955 223.147 45.1955 223.147 45.1955H220.67V77.2272H233.671V72.435H225.499C225.499 72.435 225.499 53.7709 225.499 47.3393ZM241.719 72.435C241.719 72.435 241.719 53.7709 241.719 47.3393C241.719 45.1955 239.366 45.1955 239.366 45.1955H236.89V77.2272H249.891V72.435H241.719Z" fill="white"/>
</svg>
