<svg width="24" height="24" viewBox="0 0 24 24" fill="none" xmlns="http://www.w3.org/2000/svg">
<path d="M19.9375 4C20.524 4 21 4.476 21 5.0625V8.17107C20.9997 8.45277 20.8876 8.72283 20.6884 8.92202C20.4893 9.12121 20.2192 9.23325 19.9375 9.23357H5.0625C4.78071 9.23357 4.51046 9.12163 4.3112 8.92237C4.11194 8.72312 4 8.45286 4 8.17107V5.0625C4 4.476 4.476 4 5.0625 4H19.9375ZM18.5362 5.64536C18.4086 5.64536 18.2823 5.67048 18.1645 5.7193C18.0466 5.76812 17.9395 5.83968 17.8493 5.92988C17.7591 6.02009 17.6876 6.12718 17.6387 6.24504C17.5899 6.3629 17.5648 6.48922 17.5648 6.61679C17.5648 6.74436 17.5899 6.87068 17.6387 6.98854C17.6876 7.10639 17.7591 7.21348 17.8493 7.30369C17.9395 7.3939 18.0466 7.46545 18.1645 7.51427C18.2823 7.56309 18.4086 7.58821 18.5362 7.58821C18.7939 7.58821 19.0409 7.48587 19.2231 7.30369C19.4053 7.12151 19.5076 6.87442 19.5076 6.61679C19.5076 6.35915 19.4053 6.11206 19.2231 5.92988C19.0409 5.7477 18.7939 5.64536 18.5362 5.64536ZM10.7502 5.87364H6.06307C5.86598 5.87364 5.67696 5.95194 5.53759 6.0913C5.39822 6.23067 5.31993 6.41969 5.31993 6.61679C5.31993 6.81388 5.39822 7.0029 5.53759 7.14227C5.67696 7.28163 5.86598 7.35993 6.06307 7.35993H10.7502C10.9473 7.35993 11.1363 7.28163 11.2757 7.14227C11.4151 7.0029 11.4934 6.81388 11.4934 6.61679C11.4934 6.41969 11.4151 6.23067 11.2757 6.0913C11.1363 5.95194 10.9473 5.87364 10.7502 5.87364ZM19.9375 9.88321C20.524 9.88321 21 10.3592 21 10.9457V14.0543C20.9997 14.336 20.8876 14.606 20.6884 14.8052C20.4893 15.0044 20.2192 15.1165 19.9375 15.1168H5.0625C4.78071 15.1168 4.51046 15.0048 4.3112 14.8056C4.11194 14.6063 4 14.3361 4 14.0543V10.9457C4 10.3592 4.476 9.88321 5.0625 9.88321H19.9375ZM18.5362 11.5286C18.2786 11.5286 18.0315 11.6309 17.8493 11.8131C17.6671 11.9953 17.5648 12.2424 17.5648 12.5C17.5648 12.7576 17.6671 13.0047 17.8493 13.1869C18.0315 13.3691 18.2786 13.4714 18.5362 13.4714C18.7939 13.4714 19.0409 13.3691 19.2231 13.1869C19.4053 13.0047 19.5076 12.7576 19.5076 12.5C19.5076 12.2424 19.4053 11.9953 19.2231 11.8131C19.0409 11.6309 18.7939 11.5286 18.5362 11.5286ZM10.7502 11.7569H6.06307C5.86598 11.7569 5.67696 11.8352 5.53759 11.9745C5.39822 12.1139 5.31993 12.3029 5.31993 12.5C5.31993 12.6971 5.39822 12.8861 5.53759 13.0255C5.67696 13.1648 5.86598 13.2431 6.06307 13.2431H10.7502C10.9473 13.2431 11.1363 13.1648 11.2757 13.0255C11.4151 12.8861 11.4934 12.6971 11.4934 12.5C11.4934 12.3029 11.4151 12.1139 11.2757 11.9745C11.1363 11.8352 10.9473 11.7569 10.7502 11.7569ZM19.9375 15.7664C20.524 15.7664 21 16.2424 21 16.8289V19.9375C20.9997 20.2192 20.8876 20.4893 20.6884 20.6884C20.4893 20.8876 20.2192 20.9997 19.9375 21H5.0625C4.78071 21 4.51046 20.8881 4.3112 20.6888C4.11194 20.4895 4 20.2193 4 19.9375V16.8289C4 16.2424 4.476 15.7664 5.0625 15.7664H19.9375ZM18.5362 17.4118C18.4086 17.4118 18.2823 17.4369 18.1645 17.4857C18.0466 17.5345 17.9395 17.6061 17.8493 17.6963C17.7591 17.7865 17.6876 17.8936 17.6387 18.0115C17.5899 18.1293 17.5648 18.2556 17.5648 18.3832C17.5648 18.5108 17.5899 18.6371 17.6387 18.755C17.6876 18.8728 17.7591 18.9799 17.8493 19.0701C17.9395 19.1603 18.0466 19.2319 18.1645 19.2807C18.2823 19.3295 18.4086 19.3546 18.5362 19.3546C18.7939 19.3546 19.0409 19.2523 19.2231 19.0701C19.4053 18.8879 19.5076 18.6409 19.5076 18.3832C19.5076 18.1256 19.4053 17.8785 19.2231 17.6963C19.0409 17.5141 18.7939 17.4118 18.5362 17.4118ZM10.7502 17.6401H6.06307C5.86598 17.6401 5.67696 17.7184 5.53759 17.8577C5.39822 17.9971 5.31993 18.1861 5.31993 18.3832C5.31993 18.5803 5.39822 18.7693 5.53759 18.9087C5.67696 19.0481 5.86598 19.1264 6.06307 19.1264H10.7502C10.9473 19.1264 11.1363 19.0481 11.2757 18.9087C11.4151 18.7693 11.4934 18.5803 11.4934 18.3832C11.4934 18.1861 11.4151 17.9971 11.2757 17.8577C11.1363 17.7184 10.9473 17.6401 10.7502 17.6401Z" fill="#020202"/>
</svg>
