<svg width="24" height="24" viewBox="0 0 24 24" fill="none" xmlns="http://www.w3.org/2000/svg">
<path opacity="0.2" d="M5.03979 11.3098C6.71979 9.81984 8.89979 8.83984 11.2798 8.83984C13.6598 8.83984 15.8598 9.81984 17.5298 11.3198L15.9898 13.0898C14.7198 11.9698 13.0798 11.2898 11.2798 11.2898C9.47978 11.2898 7.83979 11.9698 6.56979 13.0898L5.02979 11.3098H5.03979Z" fill="#333333"/>
<path d="M8.10986 14.8599C8.96986 14.1199 10.0699 13.6099 11.2799 13.6099C12.4899 13.6099 13.5899 14.1199 14.4499 14.8699L11.2799 18.5199L8.10986 14.8699V14.8599Z" fill="#333333"/>
<path d="M21.47 15.67H21.2V15.19C21.2 14.52 20.61 14 19.86 14C19.11 14 18.52 14.52 18.52 15.19V15.67H18.25C17.96 15.67 17.71 15.88 17.71 16.15V18.53C17.71 18.79 17.95 19.01 18.25 19.01H21.46C21.76 19.01 22 18.8 22 18.53V16.15C22 15.89 21.76 15.67 21.46 15.67H21.47ZM19.86 17.81C19.57 17.81 19.32 17.6 19.32 17.33C19.32 17.06 19.56 16.85 19.86 16.85C20.16 16.85 20.4 17.06 20.4 17.33C20.4 17.6 20.16 17.81 19.86 17.81ZM20.69 15.67H19.03V15.19C19.03 14.78 19.41 14.45 19.86 14.45C20.31 14.45 20.69 14.78 20.69 15.19V15.67Z" fill="#333333"/>
<path opacity="0.2" d="M11.28 4C7.72 4 4.48 5.57 2 7.81L3.45 9.49C5.55 7.61 8.28 6.46 11.28 6.46C14.28 6.46 17.02 7.61 19.12 9.5L20.58 7.82C18.09 5.57 14.84 4 11.28 4Z" fill="#333333"/>
</svg>
