<svg width="24" height="24" viewBox="0 0 24 24" fill="none" xmlns="http://www.w3.org/2000/svg">
<path d="M6.03002 12.3098C7.71002 10.8198 9.89002 9.83984 12.27 9.83984C14.65 9.83984 16.85 10.8198 18.52 12.3198L16.98 14.0898C15.71 12.9698 14.07 12.2898 12.27 12.2898C10.47 12.2898 8.83002 12.9698 7.56002 14.0898L6.02002 12.3098H6.03002Z" fill="#333333"/>
<path d="M9.10986 15.8599C9.96986 15.1199 11.0699 14.6099 12.2799 14.6099C13.4899 14.6099 14.5899 15.1199 15.4499 15.8699L12.2799 19.5199L9.10986 15.8699V15.8599Z" fill="#333333"/>
<path d="M12.28 5C8.72 5 5.48 6.57 3 8.81L4.45 10.49C6.55 8.61 9.28 7.46 12.28 7.46C15.28 7.46 18.02 8.61 20.12 10.5L21.58 8.82C19.1 6.57 15.85 5 12.29 5H12.28Z" fill="#333333"/>
</svg>
