<svg width="24" height="24" viewBox="0 0 24 24" fill="none" xmlns="http://www.w3.org/2000/svg">
<path d="M16.1825 6C16.6394 6 16.9888 6.06237 17.2307 6.18712C17.4726 6.31187 17.6809 6.55151 17.8555 6.90606C17.9227 7.0505 18.0302 7.27374 18.1781 7.57576C18.3259 7.87778 18.4938 8.21919 18.682 8.6C18.8701 8.98081 19.065 9.3846 19.2665 9.81136C19.4681 10.2381 19.6596 10.6419 19.841 11.0227C20.0224 11.4035 20.1837 11.7417 20.3247 12.0371C20.4658 12.3326 20.5633 12.546 20.617 12.6773C20.6842 12.8217 20.7413 12.9301 20.7884 13.0023C20.8354 13.0745 20.8757 13.1533 20.9093 13.2386C20.9429 13.324 20.9664 13.4258 20.9798 13.5439C20.9933 13.6621 21 13.8263 21 14.0364C21 14.1939 20.9966 14.4369 20.9899 14.7652C20.9832 15.0934 20.9798 15.4414 20.9798 15.8091V16.9121V17.6803C20.9798 18.048 20.869 18.3598 20.6473 18.6159C20.4255 18.872 20.1064 19 19.6898 19H4.20941C3.81971 19 3.52408 18.8785 3.32251 18.6356C3.12094 18.3927 3.01344 18.0808 3 17.7V17.0106C3 16.7086 3.00336 16.3869 3.01008 16.0455C3.0168 15.704 3.02016 15.3626 3.02016 15.0212V14.1939C3.02016 13.9707 3.02352 13.7934 3.03024 13.6621C3.03695 13.5308 3.05375 13.4159 3.08063 13.3174C3.1075 13.2189 3.13774 13.1172 3.17133 13.0121C3.20493 12.9071 3.25532 12.7758 3.32251 12.6182C3.36282 12.5131 3.45017 12.3129 3.58455 12.0174C3.71893 11.722 3.88018 11.3838 4.06831 11.003C4.25644 10.6222 4.46137 10.2152 4.68309 9.78182C4.90482 9.34848 5.1131 8.93813 5.30795 8.55076C5.5028 8.16338 5.68085 7.81869 5.84211 7.51667L6.16461 6.86667C6.33931 6.52525 6.55431 6.29545 6.80963 6.17727C7.06495 6.05909 7.3673 6 7.71669 6H16.1825ZM19.6697 14.3909C19.6697 13.997 19.4815 13.8 19.1053 13.8L4.83427 13.8197C4.60582 13.8197 4.43113 13.8821 4.31019 14.0068C4.18925 14.1316 4.12878 14.2924 4.12878 14.4894V17.2864C4.12878 17.4439 4.17245 17.5753 4.2598 17.6803C4.34714 17.7854 4.48488 17.8379 4.67301 17.8379L19.0246 17.8576C19.2934 17.8576 19.4681 17.7952 19.5487 17.6705C19.6293 17.5457 19.6697 17.3914 19.6697 17.2076V14.3909ZM7.79731 7.02424C7.60918 7.02424 7.45129 7.08662 7.32363 7.21136C7.19597 7.33611 7.13214 7.4904 7.13214 7.67424C7.13214 7.85808 7.19597 8.01237 7.32363 8.13712C7.45129 8.26187 7.60918 8.32424 7.79731 8.32424C7.98544 8.32424 8.13998 8.26187 8.26092 8.13712C8.38186 8.01237 8.44233 7.85808 8.44233 7.67424C8.44233 7.4904 8.38186 7.33611 8.26092 7.21136C8.13998 7.08662 7.98544 7.02424 7.79731 7.02424ZM6.24524 10.5697C6.05711 10.5697 5.89922 10.6321 5.77156 10.7568C5.6439 10.8816 5.58007 11.0359 5.58007 11.2197C5.58007 11.4035 5.6439 11.5578 5.77156 11.6826C5.89922 11.8073 6.05711 11.8697 6.24524 11.8697C6.43337 11.8697 6.59127 11.8073 6.71893 11.6826C6.84659 11.5578 6.91041 11.4035 6.91041 11.2197C6.91041 11.0359 6.84659 10.8816 6.71893 10.7568C6.59127 10.6321 6.43337 10.5697 6.24524 10.5697ZM15.5174 7.67424C15.5174 7.85808 15.5778 8.01237 15.6988 8.13712C15.8197 8.26187 15.9742 8.32424 16.1624 8.32424C16.3505 8.32424 16.5084 8.26187 16.6361 8.13712C16.7637 8.01237 16.8275 7.85808 16.8275 7.67424C16.8275 7.4904 16.7637 7.33611 16.6361 7.21136C16.5084 7.08662 16.3505 7.02424 16.1624 7.02424C15.9742 7.02424 15.8197 7.08662 15.6988 7.21136C15.5778 7.33611 15.5174 7.4904 15.5174 7.67424ZM17.0493 11.2197C17.0493 11.4035 17.1131 11.5578 17.2408 11.6826C17.3684 11.8073 17.5263 11.8697 17.7144 11.8697C17.9026 11.8697 18.0571 11.8073 18.1781 11.6826C18.299 11.5578 18.3595 11.4035 18.3595 11.2197C18.3595 11.0359 18.299 10.8816 18.1781 10.7568C18.0571 10.6321 17.9026 10.5697 17.7144 10.5697C17.5263 10.5697 17.3684 10.6321 17.2408 10.7568C17.1131 10.8816 17.0493 11.0359 17.0493 11.2197ZM6.60806 17.2864H6.00336V14.4894H6.60806V17.2864ZM8.44233 17.2864H7.83763V14.4894H8.44233V17.2864ZM10.2968 17.2864H9.69205V14.4894H10.2968V17.2864ZM12.131 17.2864H11.5263V14.4894H12.131V17.2864ZM14.0258 17.2864H13.4211V14.4894H14.0258V17.2864ZM15.9003 17.2864H15.2956V14.4894H15.9003V17.2864ZM17.6741 17.2864H17.0694V14.4894H17.6741V17.2864Z" fill="#020202"/>
</svg>
