<svg width="28" height="28" viewBox="0 0 28 28" fill="none" xmlns="http://www.w3.org/2000/svg">
<path d="M15.3749 13.9672L23.4412 5.94271C23.8226 5.56323 23.8246 4.94829 23.4451 4.56685C23.0646 4.18446 22.4507 4.18349 22.0692 4.56296L14.0009 12.5884L6.00274 4.5659C5.62424 4.18642 5.00832 4.18446 4.62688 4.56394C4.24642 4.94342 4.24547 5.55934 4.62492 5.94078L12.6212 13.9614L4.55878 21.981C4.17734 22.3605 4.17541 22.9754 4.55489 23.3568C4.74463 23.5476 4.99469 23.6439 5.24476 23.6439C5.49287 23.6439 5.741 23.5495 5.93074 23.3607L13.9951 15.3392L22.0663 23.4347C22.256 23.6254 22.5051 23.7208 22.7552 23.7208C23.0043 23.7208 23.2524 23.6254 23.4422 23.4366C23.8226 23.0572 23.8236 22.4422 23.4441 22.0608L15.3749 13.9672Z" fill="white"/>
</svg>
