<svg width="100" height="35" viewBox="0 0 100 35" fill="none" xmlns="http://www.w3.org/2000/svg">
<path d="M14.4866 17.6215C15.948 17.0066 16.9961 16.0224 17.631 14.6707C18.2659 13.3191 18.5834 11.5762 18.5834 9.4459C18.5834 7.7389 18.3478 6.29344 17.8766 5.11152C17.4054 3.9296 16.6947 2.99324 15.7463 2.30445C14.796 1.61566 13.68 1.12253 12.3962 0.829042C11.1125 0.535558 9.57518 0.387817 7.78632 0.387817H0V34.3621H6.18913V18.8494H8.93431L12.9912 34.3621H19.2003L14.4866 17.6215ZM11.5876 13.7284C10.815 14.507 9.51528 14.8963 7.6845 14.8963H6.18913V4.65033H8.05385C9.84271 4.65033 11.0725 5.04364 11.7434 5.82826C12.4122 6.61488 12.7476 7.91459 12.7476 9.7314C12.7476 11.5482 12.3623 12.9478 11.5896 13.7264L11.5876 13.7284Z" fill="white"/>
<path d="M40.0297 2.80536C38.5064 0.934646 36.0028 -0.00170898 32.5189 -0.00170898C30.7301 -0.00170898 29.1987 0.241863 27.929 0.725014C26.6592 1.21016 25.645 1.93689 24.8863 2.90718C24.1277 3.87748 23.5786 5.02546 23.2372 6.34913C22.8958 7.6748 22.7241 9.23806 22.7241 11.0409V23.5809C22.7241 27.2424 23.4828 30.0215 24.9981 31.9202C26.5155 33.8189 29.0211 34.7692 32.5189 34.7692C34.2938 34.7692 35.8171 34.5157 37.0889 34.0105C38.3587 33.5054 39.3729 32.7567 40.1315 31.7665C40.8902 30.7762 41.4432 29.6083 41.7906 28.2626C42.14 26.917 42.3137 25.3557 42.3137 23.5809V11.0409C42.3137 7.42125 41.553 4.67607 40.0297 2.80336V2.80536ZM36.0228 25.0383C36.0228 25.6812 35.9988 26.2342 35.9509 26.6974C35.903 27.1626 35.8071 27.6258 35.6634 28.0909C35.5196 28.5561 35.322 28.9315 35.0684 29.219C34.8149 29.5065 34.4775 29.738 34.0542 29.9157C33.631 30.0934 33.1179 30.1813 32.5169 30.1813C31.916 30.1813 31.4009 30.0934 30.9696 29.9157C30.5384 29.738 30.201 29.5065 29.9554 29.219C29.7098 28.9315 29.5142 28.5561 29.3704 28.0909C29.2267 27.6258 29.1309 27.1626 29.083 26.6974C29.035 26.2322 29.0111 25.6792 29.0111 25.0383V9.60941C29.0111 8.78885 29.053 8.10605 29.1349 7.56101C29.2167 7.01397 29.3744 6.49887 29.606 6.01372C29.8376 5.52858 30.197 5.16721 30.6821 4.92763C31.1673 4.68805 31.7782 4.56826 32.5169 4.56826C33.2556 4.56826 33.8626 4.68805 34.3397 4.92763C34.8169 5.16721 35.1762 5.52858 35.4158 6.01372C35.6554 6.49887 35.8151 7.01397 35.897 7.56101C35.9788 8.10804 36.0208 8.79084 36.0208 9.60941V25.0403L36.0228 25.0383Z" fill="white"/>
<path d="M63.5961 2.80536C62.0728 0.934646 59.5692 -0.00170898 56.0853 -0.00170898C54.2965 -0.00170898 52.7652 0.241863 51.4954 0.725014C50.2256 1.21016 49.2114 1.93689 48.4527 2.90718C47.6941 3.87748 47.145 5.02546 46.8036 6.34913C46.4622 7.6748 46.2905 9.23806 46.2905 11.0409V23.5809C46.2905 27.2424 47.0492 30.0215 48.5645 31.9202C50.0819 33.8189 52.5875 34.7692 56.0853 34.7692C57.8602 34.7692 59.3835 34.5157 60.6553 34.0105C61.9251 33.5054 62.9393 32.7567 63.6979 31.7665C64.4566 30.7762 65.0096 29.6083 65.357 28.2626C65.7064 26.917 65.8801 25.3557 65.8801 23.5809V11.0409C65.8801 7.42125 65.1195 4.67607 63.5961 2.80336V2.80536ZM59.5892 25.0383C59.5892 25.6812 59.5652 26.2342 59.5173 26.6974C59.4694 27.1626 59.3735 27.6258 59.2298 28.0909C59.0861 28.5561 58.8884 28.9315 58.6348 29.219C58.3813 29.5065 58.0439 29.738 57.6206 29.9157C57.1974 30.0934 56.6843 30.1813 56.0833 30.1813C55.4824 30.1813 54.9673 30.0934 54.536 29.9157C54.1048 29.738 53.7674 29.5065 53.5218 29.219C53.2763 28.9315 53.0806 28.5561 52.9369 28.0909C52.7931 27.6258 52.6973 27.1626 52.6494 26.6974C52.6014 26.2322 52.5775 25.6792 52.5775 25.0383V9.60941C52.5775 8.78885 52.6194 8.10605 52.7013 7.56101C52.7831 7.01397 52.9408 6.49887 53.1724 6.01372C53.404 5.52858 53.7634 5.16721 54.2485 4.92763C54.7337 4.68805 55.3446 4.56826 56.0833 4.56826C56.822 4.56826 57.429 4.68805 57.9061 4.92763C58.3833 5.16721 58.7427 5.52858 58.9822 6.01372C59.2218 6.49887 59.3815 7.01397 59.4634 7.56101C59.5452 8.10804 59.5872 8.79084 59.5872 9.60941V25.0403L59.5892 25.0383Z" fill="white"/>
<path d="M88.1845 18.7176C87.1942 17.344 85.6949 16.4676 83.6864 16.0842C87.0066 15.5931 88.6716 13.2492 88.6856 9.05659C88.6996 7.43144 88.474 6.04388 88.0088 4.8959C87.5436 3.74791 86.8568 2.84949 85.9504 2.20063C85.042 1.55177 84.0038 1.08659 82.8359 0.807081C81.6679 0.527572 80.2983 0.387817 78.7271 0.387817H70.4077V34.3621H80.1626C83.2771 34.3621 85.6469 33.5256 87.2741 31.8525C88.8992 30.1795 89.7058 27.7298 89.6918 24.5055C89.6779 22.0198 89.1767 20.0892 88.1865 18.7156L88.1845 18.7176ZM76.5968 4.73219H77.4573C78.5354 4.73219 79.3999 4.7801 80.0488 4.87593C80.6976 4.97176 81.2886 5.16942 81.8217 5.47089C82.3547 5.77236 82.7341 6.21957 82.9597 6.81253C83.1853 7.40749 83.2971 8.18212 83.2971 9.13844C83.2971 10.9832 82.9557 12.2949 82.2729 13.0735C81.5901 13.8522 80.3403 14.2415 78.5235 14.2415H76.5968V4.73219ZM82.7041 28.7081C81.9934 29.5686 80.7156 29.9998 78.8728 29.9998H76.5988V18.6058H78.5454C80.4301 18.6058 81.7737 19.067 82.5723 19.9894C83.3709 20.9118 83.7702 22.3972 83.7702 24.4456C83.7702 26.494 83.4149 27.8476 82.7041 28.7081Z" fill="white"/>
<path d="M93.8926 34.3621V0.387817H97.4523C98.8579 0.387817 99.9998 1.52781 99.9998 2.93534V34.3641H93.8926V34.3621Z" fill="white"/>
</svg>
