<svg width="36" height="36" viewBox="0 0 36 36" fill="none" xmlns="http://www.w3.org/2000/svg">
<path d="M27.2384 27.2335C29.0643 25.4087 30.3079 23.0835 30.8121 20.5518C31.3163 18.0201 31.0583 15.3958 30.0708 13.0108C29.0833 10.6258 27.4107 8.58717 25.2644 7.15287C23.1182 5.71858 20.5948 4.95301 18.0134 4.95301C15.432 4.95301 12.9087 5.71858 10.7624 7.15287C8.6162 8.58717 6.94355 10.6258 5.95606 13.0108C4.96856 15.3958 4.71058 18.0201 5.21475 20.5518C5.71891 23.0835 6.96258 25.4087 8.78843 27.2335C11.2356 29.6792 14.5537 31.053 18.0134 31.053C21.4732 31.053 24.7913 29.6792 27.2384 27.2335ZM28.8044 28.7995C26.6668 30.9445 23.9407 32.407 20.9713 33.0016C18.002 33.5963 14.923 33.2964 12.1242 32.1399C9.32537 30.9835 6.93271 29.0224 5.24918 26.5052C3.56566 23.988 2.66699 21.0278 2.66699 17.9995C2.66699 14.9712 3.56566 12.011 5.24918 9.49377C6.93271 6.97656 9.32537 5.01555 12.1242 3.85908C14.923 2.70262 18.002 2.40272 20.9713 2.99737C23.9407 3.59202 26.6668 5.05446 28.8044 7.1995C31.6623 10.0673 33.267 13.9509 33.267 17.9995C33.267 22.0481 31.6623 25.9317 28.8044 28.7995Z" fill="#D1D1D1"/>
<path d="M24.4054 12.8876C24.5018 12.755 24.6258 12.6448 24.7688 12.5647C24.9118 12.4847 25.0705 12.4365 25.2339 12.4237C25.3973 12.4108 25.5615 12.4336 25.7153 12.4903C25.8691 12.547 26.0087 12.6364 26.1247 12.7523C26.2406 12.8682 26.33 13.0079 26.3867 13.1617C26.4434 13.3155 26.4662 13.4797 26.4533 13.6431C26.4404 13.8065 26.3923 13.9652 26.3122 14.1082C26.2322 14.2512 26.122 14.3752 25.9894 14.4716L17.2054 23.2556C16.9618 23.4846 16.6399 23.6122 16.3054 23.6122C15.971 23.6122 15.6491 23.4846 15.4054 23.2556L10.4014 18.2876C10.2688 18.1912 10.1587 18.0672 10.0786 17.9242C9.99855 17.7812 9.95043 17.6225 9.93757 17.4591C9.92472 17.2957 9.94745 17.1315 10.0042 16.9777C10.0609 16.8239 10.1503 16.6842 10.2662 16.5683C10.3821 16.4524 10.5218 16.363 10.6756 16.3063C10.8293 16.2496 10.9936 16.2268 11.157 16.2397C11.3204 16.2525 11.4791 16.3007 11.6221 16.3807C11.7651 16.4608 11.8891 16.571 11.9854 16.7036L16.1974 21.0056L24.4054 12.8876Z" fill="#D1D1D1"/>
</svg>
