<svg width="24" height="24" viewBox="0 0 24 24" fill="none" xmlns="http://www.w3.org/2000/svg">
<path opacity="0.2" d="M6.03979 12.3098C7.71979 10.8198 9.89979 9.83984 12.2798 9.83984C14.6598 9.83984 16.8598 10.8198 18.5298 12.3198L16.9898 14.0898C15.7198 12.9698 14.0798 12.2898 12.2798 12.2898C10.4798 12.2898 8.83979 12.9698 7.56979 14.0898L6.02979 12.3098H6.03979Z" fill="#333333"/>
<path d="M9.12012 15.8599C9.98012 15.1199 11.0801 14.6099 12.2901 14.6099C13.5001 14.6099 14.6001 15.1199 15.4601 15.8699L12.2901 19.5199L9.12012 15.8699V15.8599Z" fill="#333333"/>
<path opacity="0.2" d="M12.28 5C8.72 5 5.48 6.57 3 8.81L4.45 10.49C6.55 8.61 9.28 7.46 12.28 7.46C15.28 7.46 18.02 8.61 20.12 10.5L21.58 8.82C19.1 6.57 15.85 5 12.29 5H12.28Z" fill="#333333"/>
</svg>
